<svg width="151" height="42" viewBox="0 0 151 42" fill="none" xmlns="http://www.w3.org/2000/svg">
<path d="M53.9 31.175C52.6167 31.175 51.4667 30.9667 50.45 30.55C49.4333 30.1333 48.6167 29.5167 48 28.7C47.4 27.8833 47.0833 26.9 47.05 25.75H51.6C51.6667 26.4 51.8917 26.9 52.275 27.25C52.6583 27.5833 53.1583 27.75 53.775 27.75C54.4083 27.75 54.9083 27.6083 55.275 27.325C55.6417 27.025 55.825 26.6167 55.825 26.1C55.825 25.6667 55.675 25.3083 55.375 25.025C55.0917 24.7417 54.7333 24.5083 54.3 24.325C53.8833 24.1417 53.2833 23.9333 52.5 23.7C51.3667 23.35 50.4417 23 49.725 22.65C49.0083 22.3 48.3917 21.7833 47.875 21.1C47.3583 20.4167 47.1 19.525 47.1 18.425C47.1 16.7917 47.6917 15.5167 48.875 14.6C50.0583 13.6667 51.6 13.2 53.5 13.2C55.4333 13.2 56.9917 13.6667 58.175 14.6C59.3583 15.5167 59.9917 16.8 60.075 18.45H55.45C55.4167 17.8833 55.2083 17.4417 54.825 17.125C54.4417 16.7917 53.95 16.625 53.35 16.625C52.8333 16.625 52.4167 16.7667 52.1 17.05C51.7833 17.3167 51.625 17.7083 51.625 18.225C51.625 18.7917 51.8917 19.2333 52.425 19.55C52.9583 19.8667 53.7917 20.2083 54.925 20.575C56.0583 20.9583 56.975 21.325 57.675 21.675C58.3917 22.025 59.0083 22.5333 59.525 23.2C60.0417 23.8667 60.3 24.725 60.3 25.775C60.3 26.775 60.0417 27.6833 59.525 28.5C59.025 29.3167 58.2917 29.9667 57.325 30.45C56.3583 30.9333 55.2167 31.175 53.9 31.175ZM62.0809 24.05C62.0809 22.6667 62.3642 21.4333 62.9309 20.35C63.5142 19.2667 64.2892 18.425 65.2559 17.825C66.2392 17.2083 67.3059 16.9 68.4559 16.9C69.3392 16.9 70.1309 17.0583 70.8309 17.375C71.5309 17.675 72.0975 18.1 72.5309 18.65V17.05H76.8059V37.65H72.5309V29.25C72.0475 29.8333 71.4559 30.3 70.7559 30.65C70.0725 31 69.2892 31.175 68.4059 31.175C67.2725 31.175 66.2225 30.875 65.2559 30.275C64.2892 29.675 63.5142 28.8333 62.9309 27.75C62.3642 26.6667 62.0809 25.4333 62.0809 24.05ZM72.5309 24.025C72.5309 23.275 72.3809 22.65 72.0809 22.15C71.7975 21.6333 71.4225 21.25 70.9559 21C70.4892 20.7333 69.9975 20.6 69.4809 20.6C68.9809 20.6 68.4975 20.7333 68.0309 21C67.5642 21.25 67.1809 21.6333 66.8809 22.15C66.5809 22.6667 66.4309 23.3 66.4309 24.05C66.4309 24.8 66.5809 25.4333 66.8809 25.95C67.1809 26.45 67.5642 26.8333 68.0309 27.1C68.4975 27.35 68.9809 27.475 69.4809 27.475C69.9809 27.475 70.4642 27.35 70.9309 27.1C71.4142 26.8333 71.7975 26.4417 72.0809 25.925C72.3809 25.4083 72.5309 24.775 72.5309 24.025ZM93.6736 17.05V31H89.3986V29.1C88.9653 29.7167 88.3736 30.2167 87.6236 30.6C86.8903 30.9667 86.0736 31.15 85.1736 31.15C84.107 31.15 83.1653 30.9167 82.3486 30.45C81.532 29.9667 80.8986 29.275 80.4486 28.375C79.9986 27.475 79.7736 26.4167 79.7736 25.2V17.05H84.0236V24.625C84.0236 25.5583 84.2653 26.2833 84.7486 26.8C85.232 27.3167 85.882 27.575 86.6986 27.575C87.532 27.575 88.1903 27.3167 88.6736 26.8C89.157 26.2833 89.3986 25.5583 89.3986 24.625V17.05H93.6736ZM95.8943 24C95.8943 22.5667 96.161 21.3083 96.6943 20.225C97.2443 19.1417 97.986 18.3083 98.9193 17.725C99.8527 17.1417 100.894 16.85 102.044 16.85C103.028 16.85 103.886 17.05 104.619 17.45C105.369 17.85 105.944 18.375 106.344 19.025V17.05H110.619V31H106.344V29.025C105.928 29.675 105.344 30.2 104.594 30.6C103.861 31 103.003 31.2 102.019 31.2C100.886 31.2 99.8527 30.9083 98.9193 30.325C97.986 29.725 97.2443 28.8833 96.6943 27.8C96.161 26.7 95.8943 25.4333 95.8943 24ZM106.344 24.025C106.344 22.9583 106.044 22.1167 105.444 21.5C104.861 20.8833 104.144 20.575 103.294 20.575C102.444 20.575 101.719 20.8833 101.119 21.5C100.536 22.1 100.244 22.9333 100.244 24C100.244 25.0667 100.536 25.9167 101.119 26.55C101.719 27.1667 102.444 27.475 103.294 27.475C104.144 27.475 104.861 27.1667 105.444 26.55C106.044 25.9333 106.344 25.0917 106.344 24.025ZM117.987 19.375C118.487 18.6083 119.112 18.0083 119.862 17.575C120.612 17.125 121.445 16.9 122.362 16.9V21.425H121.187C120.12 21.425 119.32 21.6583 118.787 22.125C118.254 22.575 117.987 23.375 117.987 24.525V31H113.712V17.05H117.987V19.375ZM137.555 23.8C137.555 24.2 137.53 24.6167 137.48 25.05H127.805C127.872 25.9167 128.147 26.5833 128.63 27.05C129.13 27.5 129.739 27.725 130.455 27.725C131.522 27.725 132.264 27.275 132.68 26.375H137.23C136.997 27.2917 136.572 28.1167 135.955 28.85C135.355 29.5833 134.597 30.1583 133.68 30.575C132.764 30.9917 131.739 31.2 130.605 31.2C129.239 31.2 128.022 30.9083 126.955 30.325C125.889 29.7417 125.055 28.9083 124.455 27.825C123.855 26.7417 123.555 25.475 123.555 24.025C123.555 22.575 123.847 21.3083 124.43 20.225C125.03 19.1417 125.864 18.3083 126.93 17.725C127.997 17.1417 129.222 16.85 130.605 16.85C131.955 16.85 133.155 17.1333 134.205 17.7C135.255 18.2667 136.072 19.075 136.655 20.125C137.255 21.175 137.555 22.4 137.555 23.8ZM133.18 22.675C133.18 21.9417 132.93 21.3583 132.43 20.925C131.93 20.4917 131.305 20.275 130.555 20.275C129.839 20.275 129.23 20.4833 128.73 20.9C128.247 21.3167 127.947 21.9083 127.83 22.675H133.18Z" fill="white"/>
<rect x="2" y="3" width="33" height="32" rx="8" stroke="white" stroke-width="4"/>
<rect x="17" y="3" width="17.5714" height="17" rx="8" stroke="white" stroke-width="4"/>
</svg>
